<svg width="154" height="49" fill="none" xmlns="http://www.w3.org/2000/svg"><g clip-path="url(#a)"><path fill-rule="evenodd" clip-rule="evenodd" d="M22.034.007c.401-.016.608 0 1.03 0 .7 0 0 1.638 0 1.638s-.698 1.227-1.358 1.824a20.96 20.96 0 0 0-.982 1.404c-3.823 2.808-6.209 6.55-7.158 11.228a12.133 12.133 0 0 0 .187 4.304c.336 1.257.71 2.505 1.123 3.743.394 2.849-.776 4.673-3.509 5.474-1.467.103-2.777-.302-3.93-1.217a.367.367 0 0 1-.187-.327c.36.155.733.202 1.123.14.497-.14.9-.289 1.403-.608.21-.133.334-.204.515-.374.142-.133.211-.219.327-.375.069-.09.132-.183.188-.28.392-.672.457-1.265.327-1.965a139.171 139.171 0 0 1-1.87-5.427c-.775-3.373-.338-6.586 1.31-9.638 2.562-4.7 5.641-9.3 11.461-9.544Z" fill="#FC7F8A"/><path fill-rule="evenodd" clip-rule="evenodd" d="M20.724 4.873c-1.455 2.651-1.783 5.427-.983 8.328.572 1.4 1.586 1.946 3.041 1.637 1.41-.367 2.175-1.287 2.293-2.76a18.7 18.7 0 0 0 0-2.246c.337-.862.945-1.127 1.824-.795a11.1 11.1 0 0 1 2.854 5.567 9.526 9.526 0 0 1-.655 4.866 61 61 0 0 1-1.87 4.116 8.457 8.457 0 0 0-.797 3.369c-.075.775.143 1.446.655 2.012.407.226.844.335 1.31.327 1.512-.16 2.947-.58 4.304-1.263.61-.175 1.093-.004 1.45.515.44 5.014-.746 9.599-3.555 13.754-2.819 3.44-6.452 5.312-10.9 5.614h-3.743a48.566 48.566 0 0 1-2.433-.374c-3.01-1.936-5.147-4.587-6.41-7.954a26.28 26.28 0 0 1-1.683-8.046c-.047-1.56-.063-3.119-.047-4.679.526.558 1.15.964 1.871 1.217a.367.367 0 0 0 .187.327c1.153.915 2.463 1.32 3.93 1.216 2.733-.8 3.903-2.624 3.51-5.473a64.27 64.27 0 0 1-1.124-3.743 12.133 12.133 0 0 1-.187-4.304c.95-4.677 3.335-8.42 7.158-11.228Z" fill="#DF335A"/><path fill-rule="evenodd" clip-rule="evenodd" d="M4.162 12.452c.032.218.156.343.375.374v.094c-1.22 1.802-1.22 3.61 0 5.427a2.73 2.73 0 0 1-1.123.935c-1.423-.8-2.14-2.031-2.152-3.696.008-1.514.632-2.7 1.87-3.555.43-.066.774.074 1.03.42v.001Z" fill="#FC7F8A"/><path fill-rule="evenodd" clip-rule="evenodd" d="M4.162 12.452c.156.094.281.218.375.374-.219-.031-.343-.156-.375-.374Z" fill="#FC7F8A"/><path fill-rule="evenodd" clip-rule="evenodd" d="M4.537 12.92c.69.76 1.033 1.664 1.03 2.713-.034 1.037-.377 1.942-1.03 2.714-1.22-1.816-1.22-3.625 0-5.427Z" fill="#E0355B"/><path fill-rule="evenodd" clip-rule="evenodd" d="M3.788 24.99c.138.19.374.468.374.468.383.481.788.95 1.217 1.403-.016 1.56 0 3.12.047 4.679.14 2.772.7 5.455 1.684 8.046 1.262 3.367 3.4 6.018 6.41 7.954-4.963-1.164-8.503-4.065-10.62-8.702C.944 33.944-1.453 26.86 1.12 23.68c.568-.55 1.225-.905 1.778-.421.375.327.443 1.116.89 1.73v.001Z" fill="#FC7F8A"/><path d="m63.684 32.4-.04-.92-11.64-.04.08 4.96h6.04s.12 3.2-1.72 4.84c-2.44 2.16-8.16 2.2-10.8-1.28-1.24-1.56-1.84-4.32-1.84-6.76 0-3 .72-9.32 7.4-9.32 5.76 0 6.44 3.84 6.44 3.84l5.24-1.56s-2.2-7.16-11.6-7.16c-7.8 0-13.12 4.76-13.24 13.68-.16 9.84 4.84 14.96 13 14.96 6.76 0 7.68-4.56 7.68-4.56l.88 4.12h4.16l-.04-14.8Zm20.482 12.04-.04-7c0-4.84-.12-6.76-2.36-8.76-1.68-1.48-3.76-2.04-6.72-2.04-4.28 0-7.92 1.24-8.84 5.36l5.48 1.28c.88-3.32 5.4-2.48 6.28-1.24.44.64.4 1.48.16 1.96-.72 1.16-2.2 1.16-6.04 1.44-3.24.28-4.64 1.08-5.52 1.96-1.32 1.32-1.84 3.16-1.68 4.88.16 1.64 1 3.2 2.4 4.12 1.32.84 2.6 1.2 4.92 1.2 4.8 0 6.36-2.92 6.36-2.92l.24 2.52h6.36l-1-2.76Zm-7.12-2.2c-1.16.92-2.8 1.2-3.88 1.04-1.88-.24-2.88-1.84-2-3.32 1.12-1.96 5.32-.92 7.16-2.24.12 2.36-.2 3.64-1.28 4.52Zm16.089-4.48v-3.72l-.08-2.6 2.2.08h2.48l-.04-4.68h-2.2l-2.44.04.12-2.92v-4.6l-5.68 1.16v3.44l.04 2.92-3.08-.04v4.68l3.12-.12-.08 2.08v7.04c0 3.44 1.08 8.44 10.72 6.72l-.88-5.12s-3.76 1.12-4.12-1.32c-.04-.36-.08-.76-.08-3.04Zm24.844 6.68-.04-7c0-4.84-.12-6.76-2.36-8.76-1.68-1.48-3.76-2.04-6.72-2.04-4.28 0-7.92 1.24-8.84 5.36l5.48 1.28c.88-3.32 5.4-2.48 6.28-1.24.44.64.4 1.48.16 1.96-.72 1.16-2.2 1.16-6.04 1.44-3.24.28-4.64 1.08-5.52 1.96-1.32 1.32-1.84 3.16-1.68 4.88.16 1.64 1 3.2 2.4 4.12 1.32.84 2.6 1.2 4.92 1.2 4.8 0 6.36-2.92 6.36-2.92l.24 2.52h6.36l-1-2.76Zm-7.12-2.2c-1.16.92-2.8 1.2-3.88 1.04-1.88-.24-2.88-1.84-2-3.32 1.12-1.96 5.32-.92 7.16-2.24.12 2.36-.2 3.64-1.28 4.52Zm27.885-12.018h-1.416l-5.88 12.792-6.096-12.792h-1.344L123 46.95h2.112l.504-11.496 5.64 11.496h.312l5.664-11.496.552 11.496h2.208l-1.248-16.728Zm11.454 7.92c-2.304-.792-4.992-1.392-5.736-2.352-1.056-1.392.024-3.24 1.464-3.648 1.416-.432 3.336-.432 4.584.504.48.336.912.864 1.176 1.68l1.896-.792s-.552-1.992-3.048-3.048c-1.08-.456-4.896-1.152-7.272.96-1.992 1.752-1.608 4.824 0 6.192 1.008.864 2.016 1.104 3.624 1.632 1.2.384 3.384.816 4.248 1.944 1.368 1.776-.144 4.704-4.416 3.912-2.28-.408-2.688-2.136-2.736-2.4-.696.288-1.416.576-2.064.816.264.648.72 1.392 1.368 2.016 2.856 2.928 10.776 2.112 10.56-3-.096-2.4-1.776-3.768-3.648-4.416Z" fill="#000"/></g><defs><clipPath id="a"><path fill="#000" d="M0 0h154v49H0z"/></clipPath></defs></svg>