<svg width="17" height="20" fill="none" xmlns="http://www.w3.org/2000/svg"><path fill-rule="evenodd" clip-rule="evenodd" d="M10.94.003c.2-.007.302 0 .51 0 .348 0 0 .684 0 .684s-.345.512-.673.761c-.173.19-.335.386-.488.586-1.898 1.172-3.082 2.734-3.554 4.687a4.278 4.278 0 0 0 .093 1.796c.167.525.353 1.046.558 1.563.195 1.189-.385 1.95-1.742 2.284-.729.044-1.38-.126-1.951-.507-.062-.032-.093-.078-.093-.137.178.065.364.085.557.059.247-.059.446-.12.697-.254.104-.056.166-.085.255-.157.07-.055.105-.09.163-.156.04-.044.06-.07.093-.117a.955.955 0 0 0 .163-.82 52.152 52.152 0 0 1-.93-2.265c-.384-1.408-.167-2.75.65-4.023C6.523 2.025 8.05.105 10.94.003Z" fill="#FC7F8A"/><path fill-rule="evenodd" clip-rule="evenodd" d="M10.29 2.034C9.566 3.141 9.403 4.3 9.801 5.51c.284.585.787.812 1.51.684.7-.154 1.079-.538 1.138-1.153a6.46 6.46 0 0 0 0-.937c.167-.36.469-.47.905-.332.736.657 1.208 1.432 1.417 2.324a3.402 3.402 0 0 1-.325 2.03 23.738 23.738 0 0 1-.929 1.72 3.076 3.076 0 0 0-.395 1.405c-.037.324.071.604.325.84.202.095.419.14.65.137a7.059 7.059 0 0 0 2.138-.527c.302-.074.542-.002.72.214.218 2.093-.37 4.007-1.765 5.742-1.4 1.436-3.204 2.217-5.413 2.343H7.92c-.398-.043-.8-.095-1.208-.156-1.494-.808-2.555-1.915-3.182-3.32a9.486 9.486 0 0 1-.836-3.359 41.028 41.028 0 0 1-.023-1.953c.261.233.57.402.929.508 0 .06.031.105.093.137.572.381 1.222.55 1.95.508 1.358-.335 1.938-1.096 1.743-2.285a23.764 23.764 0 0 1-.558-1.563 4.278 4.278 0 0 1-.093-1.796c.472-1.953 1.656-3.515 3.554-4.687Z" fill="#DF335A"/><path fill-rule="evenodd" clip-rule="evenodd" d="M2.067 5.198c.015.09.077.143.185.156v.039c-.605.752-.605 1.507 0 2.265-.144.174-.33.304-.557.39C.989 7.716.633 7.202.626 6.507c.005-.632.314-1.127.93-1.484.213-.028.383.031.51.176Z" fill="#FC7F8A"/><path fill-rule="evenodd" clip-rule="evenodd" d="M2.067 5.198a.5.5 0 0 1 .185.156c-.108-.013-.17-.065-.185-.156Z" fill="#FC7F8A"/><path fill-rule="evenodd" clip-rule="evenodd" d="M2.252 5.393c.343.317.514.694.511 1.133a1.64 1.64 0 0 1-.51 1.132c-.606-.758-.606-1.513 0-2.265Z" fill="#E0355B"/><path fill-rule="evenodd" clip-rule="evenodd" d="M1.88 10.431c.069.08.187.196.187.196.19.2.39.396.604.585-.008.651 0 1.302.023 1.953a9.486 9.486 0 0 0 .836 3.359c.627 1.405 1.688 2.512 3.182 3.32-2.464-.486-4.221-1.697-5.273-3.633C.47 14.17-.72 11.213.557 9.885c.282-.229.608-.377.882-.175.186.136.22.465.442.722Z" fill="#FC7F8A"/></svg>